<svg width="36" height="40" viewBox="0 0 36 40" fill="none" xmlns="http://www.w3.org/2000/svg">
<path d="M36 40H0V0H36V40Z" stroke="#E5E7EB"/>
<g clip-path="url(#clip0_1609_3327)">
<path d="M9.50625 9.75469L7.67109 15H28.3289L26.4937 9.75469C26.1773 8.85469 25.3266 8.25 24.3703 8.25H11.6297C10.6734 8.25 9.82266 8.85469 9.50625 9.75469ZM2.78437 15.3375L5.25938 8.27109C6.20859 5.56406 8.76094 3.75 11.6297 3.75H24.3703C27.2391 3.75 29.7914 5.56406 30.7406 8.27109L33.2156 15.3375C34.8469 16.0125 36 17.6227 36 19.5V29.625V33C36 34.2445 34.9945 35.25 33.75 35.25H31.5C30.2555 35.25 29.25 34.2445 29.25 33V29.625H6.75V33C6.75 34.2445 5.74453 35.25 4.5 35.25H2.25C1.00547 35.25 0 34.2445 0 33V29.625V19.5C0 17.6227 1.15312 16.0125 2.78437 15.3375ZM9 21.75C9 21.1533 8.76295 20.581 8.34099 20.159C7.91903 19.7371 7.34674 19.5 6.75 19.5C6.15326 19.5 5.58097 19.7371 5.15901 20.159C4.73705 20.581 4.5 21.1533 4.5 21.75C4.5 22.3467 4.73705 22.919 5.15901 23.341C5.58097 23.7629 6.15326 24 6.75 24C7.34674 24 7.91903 23.7629 8.34099 23.341C8.76295 22.919 9 22.3467 9 21.75ZM29.25 24C29.8467 24 30.419 23.7629 30.841 23.341C31.2629 22.919 31.5 22.3467 31.5 21.75C31.5 21.1533 31.2629 20.581 30.841 20.159C30.419 19.7371 29.8467 19.5 29.25 19.5C28.6533 19.5 28.081 19.7371 27.659 20.159C27.2371 20.581 27 21.1533 27 21.75C27 22.3467 27.2371 22.919 27.659 23.341C28.081 23.7629 28.6533 24 29.25 24Z" fill="#9CA3AF"/>
</g>
<defs>
<clipPath id="clip0_1609_3327">
<path d="M0 1.5H36V37.5H0V1.5Z" fill="white"/>
</clipPath>
</defs>
</svg>
