<svg width="45" height="36" viewBox="0 0 45 36" fill="none" xmlns="http://www.w3.org/2000/svg">
<path d="M45 36H0V0H45V36Z" stroke="#E5E7EB"/>
<path d="M19.6875 2.24995C18.7523 2.24995 18 3.00229 18 3.93745C18 4.87261 18.7523 5.62495 19.6875 5.62495H23.7445L24.8977 7.75542L18 13.5L14.8148 10.3148C13.9711 9.47104 12.825 8.99995 11.6297 8.99995H4.5C3.25547 8.99995 2.25 10.0054 2.25 11.25V13.5H9C15.2156 13.5 20.25 18.5343 20.25 24.75C20.25 25.5234 20.1727 26.2757 20.025 27H24.975C24.8273 26.2757 24.75 25.5234 24.75 24.75C24.75 21.0796 26.5078 17.8171 29.2289 15.764L30.3117 17.775C28.2938 19.4273 27 21.9375 27 24.75C27 29.721 31.0289 33.75 36 33.75C40.9711 33.75 45 29.721 45 24.75C45 19.7789 40.9711 15.75 36 15.75C35.0508 15.75 34.1367 15.8976 33.2789 16.1718L29.4047 8.99995H33.75C34.9945 8.99995 36 7.99448 36 6.74995V4.49995C36 3.25542 34.9945 2.24995 33.75 2.24995H32.3156C31.7883 2.24995 31.282 2.43276 30.8742 2.77026L27.5414 5.54761L26.557 3.71948C26.0648 2.81245 25.1156 2.24292 24.082 2.24292H19.6875V2.24995ZM32.5336 21.8812L34.5164 25.5515C34.9594 26.3742 35.9859 26.6765 36.8016 26.2335C37.6172 25.7906 37.9266 24.764 37.4836 23.9484L35.5008 20.2781C35.6625 20.257 35.8312 20.25 36 20.25C38.482 20.25 40.5 22.2679 40.5 24.75C40.5 27.232 38.482 29.25 36 29.25C33.518 29.25 31.5 27.232 31.5 24.75C31.5 23.6601 31.8867 22.6617 32.5336 21.8812ZM13.1695 26.4375C12.5016 28.0898 10.8844 29.25 9 29.25C6.51797 29.25 4.5 27.232 4.5 24.75C4.5 22.2679 6.51797 20.25 9 20.25C10.8914 20.25 12.5086 21.4101 13.1695 23.0625H17.8383C17.0508 18.9 13.3945 15.75 9 15.75C4.02891 15.75 0 19.7789 0 24.75C0 29.721 4.02891 33.75 9 33.75C13.3945 33.75 17.0508 30.6 17.8453 26.4375H13.1695ZM9 27C9.59674 27 10.169 26.7629 10.591 26.3409C11.0129 25.919 11.25 25.3467 11.25 24.75C11.25 24.1532 11.0129 23.5809 10.591 23.159C10.169 22.737 9.59674 22.5 9 22.5C8.40326 22.5 7.83097 22.737 7.40901 23.159C6.98705 23.5809 6.75 24.1532 6.75 24.75C6.75 25.3467 6.98705 25.919 7.40901 26.3409C7.83097 26.7629 8.40326 27 9 27Z" fill="#9CA3AF"/>
</svg>
