<svg width="36" height="40" viewBox="0 0 36 40" fill="none" xmlns="http://www.w3.org/2000/svg">
<path d="M36 40H0V0H36V40Z" stroke="#E5E7EB"/>
<g clip-path="url(#clip0_1609_3347)">
<path d="M5.5266 1.85155C4.85863 1.33124 3.90941 1.39452 3.30473 1.99218L0.492227 4.80468C-0.105429 5.40233 -0.168711 6.35155 0.344571 7.02655L5.96957 14.3391C6.28598 14.7539 6.7852 15 7.30551 15H11.1094L18.7735 22.6641C17.7399 24.7031 18.0704 27.2625 19.7789 28.9641L27.6539 36.8391C28.5329 37.718 29.9602 37.718 30.8391 36.8391L35.3391 32.3391C36.218 31.4601 36.218 30.0328 35.3391 29.1539L27.4641 21.2789C25.7625 19.5773 23.2032 19.2398 21.1641 20.2734L13.5 12.6094V8.81249C13.5 8.28515 13.2539 7.79296 12.8391 7.47655L5.5266 1.85155ZM1.39926 29.3508C0.506289 30.2437 3.9385e-05 31.4601 3.9385e-05 32.7258C3.9385e-05 35.3625 2.13754 37.5 4.77426 37.5C6.03988 37.5 7.25629 36.9937 8.14926 36.1008L16.4321 27.818C15.8836 26.3484 15.7993 24.7523 16.1789 23.2406L11.8407 18.9023L1.39926 29.3508ZM36 11.625C36 10.8867 35.9227 10.1695 35.775 9.48046C35.6063 8.69296 34.643 8.48905 34.0735 9.05858L29.5805 13.5516C29.3696 13.7625 29.0813 13.882 28.786 13.882H24.75C24.1313 13.882 23.625 13.3758 23.625 12.757V8.71405C23.625 8.41874 23.7446 8.13046 23.9555 7.91952L28.4485 3.42655C29.018 2.85702 28.8141 1.89374 28.0266 1.72499C27.3305 1.57733 26.6133 1.49999 25.875 1.49999C20.2852 1.49999 15.75 6.03515 15.75 11.625V11.6812L21.7477 17.6789C24.2789 17.0391 27.0774 17.7141 29.0602 19.6969L30.1641 20.8008C33.6094 19.1836 36 15.682 36 11.625ZM3.93754 31.875C3.93754 31.4274 4.11533 30.9982 4.4318 30.6817C4.74826 30.3653 5.17749 30.1875 5.62504 30.1875C6.07259 30.1875 6.50181 30.3653 6.81828 30.6817C7.13475 30.9982 7.31254 31.4274 7.31254 31.875C7.31254 32.3225 7.13475 32.7518 6.81828 33.0682C6.50181 33.3847 6.07259 33.5625 5.62504 33.5625C5.17749 33.5625 4.74826 33.3847 4.4318 33.0682C4.11533 32.7518 3.93754 32.3225 3.93754 31.875Z" fill="#9CA3AF"/>
</g>
<defs>
<clipPath id="clip0_1609_3347">
<path d="M0 1.5H36V37.5H0V1.5Z" fill="white"/>
</clipPath>
</defs>
</svg>
