<svg width="50" height="50" viewBox="0 0 50 50" fill="none" xmlns="http://www.w3.org/2000/svg">
<path d="M25 0C38.8071 0 50 11.1929 50 25C50 38.8071 38.8071 50 25 50C11.1929 50 0 38.8071 0 25C0 11.1929 11.1929 0 25 0Z" fill="#218CAC"/>
<path d="M25 0C38.8071 0 50 11.1929 50 25C50 38.8071 38.8071 50 25 50C11.1929 50 0 38.8071 0 25C0 11.1929 11.1929 0 25 0Z" stroke="#E5E7EB"/>
<path d="M29.6277 33.9946C29.4594 33.8071 29.2804 33.6217 29.078 33.4704C29.0397 33.4427 29.0024 33.414 28.964 33.3863C27.8955 32.6022 26.7055 32.0173 25.4442 31.555C25.1917 31.4623 24.919 31.4229 24.658 31.5124C24.4492 31.5837 24.2457 31.6828 24.0625 31.8021C23.794 31.979 23.549 32.1846 23.2933 32.3774C23.1484 32.4871 22.9875 32.5202 22.8118 32.4594C22.6168 32.3913 22.4165 32.3316 22.2301 32.2474C21.1456 31.7553 20.223 31.066 19.4496 30.2009C19.0597 29.7663 18.7028 29.3114 18.4525 28.7872C18.3609 28.5933 18.3736 28.4207 18.5004 28.246C18.6485 28.0415 18.787 27.8316 18.9351 27.626C19.3175 27.0976 19.3218 26.5639 19.0214 25.9992C18.5643 25.1406 17.9912 24.3576 17.3531 23.6129C17.0857 23.3007 16.7948 23.011 16.4646 22.7585C16.3836 22.6967 16.3005 22.637 16.2153 22.5795C15.9042 22.3707 15.5676 22.3015 15.2011 22.4581C15.1648 22.473 15.1286 22.4889 15.0924 22.5049C14.4447 22.7904 13.8438 23.1452 13.3218 23.6118C12.6474 24.2159 12.314 24.9456 12.4269 25.8288C12.4908 26.322 12.6261 26.7961 12.8371 27.2499C13.5775 28.8362 14.6034 30.2532 15.7934 31.5634C16.6905 32.5531 17.7143 33.4214 18.7765 34.2502C20.4843 35.5829 22.3847 36.6121 24.4356 37.3994C25.1259 37.6657 25.8451 37.8362 26.6334 37.8202C27.4324 37.7808 28.1068 37.4378 28.6437 36.855C29.1892 36.2616 29.5397 35.5638 29.8049 34.8287C29.9093 34.54 29.8518 34.2673 29.6633 34.035C29.6526 34.0222 29.6409 34.0084 29.6281 33.9945L29.6277 33.9946Z" fill="white"/>
<path d="M35.6905 29.6852C37.0275 27.7005 37.6923 25.3494 37.5826 22.9139C37.4728 20.4924 36.6078 18.2233 35.1121 16.3717C34.5794 15.7123 33.9657 15.1061 33.2786 14.5649C31.4249 13.1064 29.1375 12.268 26.78 12.186C23.423 12.0699 20.2859 13.3952 18.0528 15.8411C16.801 17.2111 15.9253 18.8315 15.4715 20.5775C15.5844 20.5648 15.6973 20.5605 15.8113 20.5658C16.165 20.5829 16.507 20.6873 16.833 20.878C17.2346 19.3684 17.9963 17.9663 19.0808 16.7797C20.8546 14.8376 23.2803 13.702 25.9075 13.5836C28.5357 13.4643 31.053 14.3762 32.9962 16.1511C34.9394 17.926 36.0739 20.3505 36.1923 22.9788C36.2828 24.9657 35.7821 26.8886 34.7669 28.5484L33.4085 26.8727C33.1923 26.6053 32.7683 26.6734 32.6457 26.9941L30.9348 31.9981C30.8123 32.3188 31.0818 32.6522 31.4217 32.5979L36.6706 31.9565C37.0094 31.9033 37.1628 31.5016 36.9465 31.2353L35.6905 29.6852Z" fill="white"/>
<path d="M30.5545 18.304C27.8453 15.8931 23.6968 16.135 21.2861 18.8441C19.7883 20.5274 19.3142 22.7668 19.8224 24.8005C19.963 25.3683 20.1814 25.9191 20.4733 26.4369C20.8195 27.0505 21.2712 27.6172 21.8273 28.1116C24.5354 30.5214 28.6839 30.2806 31.0946 27.5714C33.5044 24.8633 33.2626 20.7135 30.5545 18.304ZM30.0048 26.602C29.7757 26.8598 29.3784 26.8832 29.1206 26.6531L25.5645 23.49L25.5613 18.5629C25.5602 18.4021 25.6209 18.2572 25.72 18.1453C25.834 18.0164 26.0023 17.9355 26.1877 17.9355C26.5339 17.9344 26.8141 18.2156 26.8152 18.5619L26.8173 22.9277L29.9537 25.7188C30.2115 25.9479 30.2349 26.3442 30.0048 26.602Z" fill="white"/>
</svg>
