<svg width="36" height="36" viewBox="0 0 36 36" fill="none" xmlns="http://www.w3.org/2000/svg">
<path d="M8.8327 25.9604C8.85226 27.7678 8.85226 29.5642 8.85226 31.3617C8.85226 32.2079 9.08093 32.4549 9.90757 32.4549H18.1434C19.0654 32.4549 19.9887 32.4647 20.9205 32.4549C21.5673 32.4549 21.7765 32.2458 21.7765 31.6466C21.7862 31.0951 21.8046 30.5437 21.7765 29.9921C21.7483 29.5067 21.9281 29.3074 22.4136 29.3172C23.2121 29.3367 24.0203 29.3367 24.8201 29.3269C26.9686 29.3074 28.1487 27.5771 28.1108 26.1317C28.0912 25.1901 28.1389 24.2388 28.101 23.2984C28.0814 22.8129 28.2147 22.6796 28.71 22.6894C30.307 22.7273 31.0688 21.5486 30.4023 20.1129C29.8985 19.0283 29.3654 17.9547 28.8335 16.8798C28.6721 16.557 28.5962 16.2232 28.6244 15.8624C28.6818 14.9685 28.7197 14.0747 28.5962 13.1905C28.1682 10.224 26.6373 7.84689 24.326 6.02968C21.4071 3.7381 18.0407 3.15725 14.4357 3.76622C8.36675 4.78239 4.41113 10.0612 5.55186 16.7466C5.85634 18.5625 6.59736 20.1985 7.57687 21.7578C8.36681 23.0319 8.81436 24.449 8.8327 25.9604ZM12.742 5.57224C16.3554 4.28826 19.8831 4.59276 23.1166 6.7804C25.484 8.37742 26.7582 10.6985 27.2337 13.5036C27.3951 14.4452 27.3095 15.377 27.3193 16.3186C27.3291 16.6891 27.4049 17.0229 27.5663 17.3457C28.0982 18.4206 28.6216 19.4955 29.145 20.5789C29.392 21.0827 29.2685 21.282 28.6889 21.3211C28.3367 21.3407 27.976 21.3309 27.6238 21.3871C27.0528 21.4825 26.8057 21.7772 26.796 22.3666C26.796 23.5454 26.7679 24.7157 26.8058 25.8946C26.8535 27.0453 25.8923 28.0346 24.7612 27.9673C23.7536 27.9013 22.7264 27.8243 21.7274 28.0334C20.8995 28.2143 20.529 28.6607 20.4911 29.5264C20.4715 29.9348 20.463 30.3445 20.5009 30.7529C20.529 31.0953 20.3957 31.1613 20.0827 31.1528C18.4943 31.1332 16.9069 31.143 15.3282 31.143C13.7593 31.143 12.1906 31.1332 10.6216 31.1528C10.289 31.1626 10.1838 31.0867 10.1838 30.7248C10.174 29.0324 10.2217 27.3401 10.1361 25.6463C10.0408 24.0297 9.58465 22.5269 8.72866 21.1572C7.85433 19.7302 7.14022 18.2567 6.85528 16.5827C6.0091 11.6107 8.17709 7.17909 12.742 5.57224ZM10.0505 14.0257C10.5445 14.0355 11.0484 14.0538 11.5436 14.0159C12.0511 13.9768 11.8823 14.8755 11.8897 15.1751C11.8909 15.2326 11.8921 15.2925 11.8713 15.3451C11.82 15.471 11.6622 15.5004 11.5436 15.5187C11.0202 15.5945 10.4785 15.5089 9.94657 15.5383C9.51858 15.5664 9.26179 15.833 9.27159 16.2708C9.27159 16.6792 9.50882 16.9176 9.93681 16.9274C10.2217 16.9372 10.5079 16.9372 10.7928 16.9372C11.9153 16.9372 11.9056 16.9372 11.8579 18.0598C11.8579 18.2786 11.8102 18.3642 11.5729 18.3545C11.0691 18.3349 10.5739 18.3447 10.0701 18.3545C9.62252 18.3642 9.32782 18.5917 9.28137 19.049C9.24346 19.4575 9.58585 19.7619 10.0896 19.7717C10.5555 19.7913 11.0215 19.7913 11.4776 19.7717C11.7625 19.7522 11.8676 19.8378 11.9337 20.1239C12.0951 20.8845 12.5708 21.3321 13.3216 21.436C13.5784 21.4641 13.6444 21.5595 13.6358 21.7979C13.6261 22.3299 13.6358 22.8728 13.6456 23.4047C13.6456 23.8131 13.8926 24.0418 14.2632 24.0699C14.6251 24.0895 14.9198 23.8987 14.9663 23.4903C14.9944 23.1381 14.9944 22.7872 14.9944 22.4252C14.9944 21.4176 14.9846 21.436 15.9837 21.436C16.298 21.436 16.364 21.5411 16.3542 21.8358C16.3261 22.3115 16.3346 22.7957 16.3542 23.2714C16.3738 23.7752 16.6966 24.1371 17.0867 24.0699C17.5244 23.9941 17.7433 23.7177 17.714 23.2421C17.6944 22.7481 17.7238 22.243 17.714 21.749C17.7042 21.5301 17.7617 21.4445 17.9989 21.4347C19.1019 21.3773 19.1019 21.3589 19.1019 22.4424V22.5475C19.1019 22.7848 19.0921 23.0134 19.1019 23.2421C19.1019 23.7557 19.3782 24.0883 19.7867 24.0883C20.1865 24.0883 20.4812 23.7459 20.4898 23.2519C20.4996 22.7481 20.4898 22.2528 20.4898 21.749C20.4898 21.5876 20.4617 21.4543 20.7184 21.4348C21.5842 21.3871 22.0587 20.8735 22.2299 20.0652C22.2775 19.8365 22.3534 19.7424 22.6101 19.7607C23.1237 19.7803 23.6471 19.7803 24.1607 19.7326C24.5605 19.6947 24.7782 19.4379 24.7696 19.0099C24.7599 18.5819 24.4933 18.4107 24.1325 18.363C23.866 18.3349 23.6006 18.3532 23.334 18.3532C22.2494 18.3434 22.269 18.3434 22.2787 17.2686C22.2787 16.9543 22.3924 16.9164 22.6492 16.9262C23.1151 16.9458 23.5712 16.936 24.0371 16.9262C24.4835 16.9262 24.7403 16.6792 24.7598 16.2512C24.7696 15.8134 24.4835 15.5762 24.0555 15.5383C23.8464 15.5187 23.6275 15.5383 23.4184 15.5383C22.2298 15.5383 22.2396 15.5383 22.2775 14.3302C22.2873 14.0636 22.3533 14.0073 22.6003 14.0159C23.0662 14.0355 23.5321 14.044 23.9882 14.0159C24.4443 13.9878 24.7965 13.6539 24.7488 13.2834C24.6914 12.8652 24.4541 12.6084 23.998 12.6182C23.5517 12.6182 23.1041 12.5986 22.6578 12.6182C22.3815 12.628 22.2677 12.5522 22.1919 12.266C22.0207 11.5617 21.5267 11.1349 20.8126 11.0579C20.5081 11.02 20.48 10.9062 20.4898 10.6678C20.4996 10.1444 20.5093 9.63084 20.48 9.11726C20.4604 8.6795 20.2036 8.42268 19.7573 8.44227C19.3293 8.45206 19.1202 8.71863 19.1006 9.12706C19.0811 9.43154 19.1006 9.73602 19.1006 10.0405C19.1006 11.0396 19.1006 11.0298 18.093 11.0298C17.7983 11.0298 17.6846 10.9638 17.7029 10.6495C17.731 10.1555 17.7225 9.65046 17.7127 9.15645C17.7054 8.71011 17.4681 8.43498 17.0304 8.43498C16.5926 8.4252 16.3651 8.71134 16.3358 9.13811C16.3162 9.44259 16.3358 9.74707 16.3358 10.0516C16.3456 11.0592 16.3456 11.0408 15.3282 11.031C15.0616 11.0213 14.9576 10.9736 14.976 10.6789C15.0041 10.1934 14.9858 9.71896 14.976 9.23349C14.9662 8.682 14.7192 8.3873 14.2814 8.42521C13.8155 8.4729 13.6064 8.75782 13.6162 9.22372C13.6357 9.72754 13.6162 10.2228 13.626 10.7168C13.6357 10.9259 13.5783 11.0017 13.3692 11.0213C12.5609 11.1069 12.095 11.5728 11.914 12.3432C11.8663 12.5523 11.7807 12.6281 11.5521 12.6195C11.0385 12.6 10.5249 12.6 10.0015 12.6195C9.51608 12.6391 9.25074 12.9142 9.25929 13.3422C9.27029 13.7311 9.59321 14.0171 10.0505 14.0257ZM13.2079 12.9704C13.1981 12.5326 13.3693 12.3516 13.7973 12.3516C15.9751 12.3614 18.1433 12.3516 20.3211 12.3516C20.7393 12.3516 20.9301 12.5326 20.9203 12.9789C20.9007 14.0635 20.9203 15.147 20.9203 16.2317C20.9203 17.325 20.9105 18.4096 20.9203 19.493C20.9301 19.9491 20.7393 20.1399 20.2832 20.1399C18.1335 20.1301 15.9751 20.1301 13.817 20.1399C13.389 20.1399 13.208 19.9785 13.208 19.5407C13.2166 17.3543 13.2164 15.1579 13.2079 12.9704ZM15.5753 18.5231C15.5875 18.5231 15.5997 18.5244 15.612 18.5244C16.5927 18.5476 17.5746 18.5464 18.5553 18.5219C18.7302 18.517 18.9172 18.5085 19.0603 18.4082C19.2951 18.2431 19.3171 17.9093 19.3159 17.6231C19.3135 16.7574 19.3122 15.8904 19.3098 15.0246C19.3086 14.7458 19.2939 14.4316 19.0885 14.2432C18.905 14.0757 18.6311 14.0647 18.3829 14.0635C17.577 14.0598 16.7724 14.0561 15.9666 14.0525C15.6939 14.0513 15.2769 14.0256 15.047 14.2053C14.8 14.3985 14.8147 14.8106 14.8159 15.0968C14.8196 15.9736 14.8232 16.8491 14.8269 17.7258C14.8281 17.9447 14.8379 18.1869 14.9895 18.3434C15.135 18.4938 15.3637 18.517 15.5753 18.5231ZM17.1063 15.433C17.9243 15.433 17.9243 15.433 17.9243 16.2609C17.9243 17.1352 17.9243 17.1352 17.05 17.1352C16.2136 17.1352 16.2136 17.1352 16.2136 16.3074C16.2124 15.433 16.2124 15.433 17.1063 15.433Z" fill="#218CAC"/>
</svg>
