<svg width="14" height="20" viewBox="0 0 14 20" fill="none" xmlns="http://www.w3.org/2000/svg">
<path d="M14 20H0V0H14V20Z" stroke="#E5E7EB"/>
<path d="M14 18H0V2H14V18Z" stroke="#E5E7EB"/>
<path d="M13.7063 10.7063C14.0969 10.3156 14.0969 9.68127 13.7063 9.29065L8.70625 4.29065C8.31563 3.90002 7.68125 3.90002 7.29063 4.29065C6.9 4.68127 6.9 5.31565 7.29063 5.70627L10.5875 9.00002H1C0.446875 9.00002 0 9.4469 0 10C0 10.5531 0.446875 11 1 11H10.5844L7.29375 14.2938C6.90312 14.6844 6.90312 15.3188 7.29375 15.7094C7.68437 16.1 8.31875 16.1 8.70938 15.7094L13.7094 10.7094L13.7063 10.7063Z" fill="white"/>
</svg>
