<svg width="130" height="46" viewBox="0 0 130 46" fill="none" xmlns="http://www.w3.org/2000/svg">
<path d="M22.5511 2.65308C17.3342 2.82707 12.3945 5.04407 8.79701 8.82617C5.19947 12.6083 3.23217 17.6526 3.31917 22.8717C3.40618 28.0908 5.54054 33.0667 9.26215 36.7267C12.9838 40.3868 17.9945 42.4379 23.2144 42.4379C28.4342 42.4379 33.445 40.3868 37.1666 36.7267C40.8882 33.0667 43.0226 28.0908 43.1096 22.8717C43.1966 17.6526 41.2293 12.6083 37.6317 8.82617C34.0342 5.04407 29.0946 2.82707 23.8776 2.65308H22.5511ZM50.4083 2.65308C45.1913 2.82707 40.2517 5.04407 36.6542 8.82617C33.0566 12.6083 31.0893 17.6526 31.1763 22.8717C31.2633 28.0908 33.3977 33.0667 37.1193 36.7267C40.8409 40.3868 45.8517 42.4379 51.0715 42.4379C56.2913 42.4379 61.3021 40.3868 65.0237 36.7267C68.7453 33.0667 70.8797 28.0908 70.9667 22.8717C71.0537 17.6526 69.0864 12.6083 65.4889 8.82617C61.8913 5.04407 56.9517 2.82707 51.7348 2.65308H50.4083ZM78.2654 2.65308C73.0485 2.82707 68.1088 5.04407 64.5113 8.82617C60.9138 12.6083 58.9465 17.6526 59.0335 22.8717C59.1205 28.0908 61.2548 33.0667 64.9764 36.7267C68.698 40.3868 73.7088 42.4379 78.9287 42.4379C84.1485 42.4379 89.1593 40.3868 92.8809 36.7267C96.6025 33.0667 98.7368 28.0908 98.8239 22.8717C98.9109 17.6526 96.9435 12.6083 93.346 8.82617C89.7485 5.04407 84.8088 2.82707 79.5919 2.65308H78.2654ZM106.123 2.65308C100.906 2.82707 95.966 5.04407 92.3684 8.82617C88.7709 12.6083 86.8036 17.6526 86.8906 22.8717C86.9776 28.0908 89.112 33.0667 92.8336 36.7267C96.5552 40.3868 101.566 42.4379 106.786 42.4379C112.006 42.4379 117.016 40.3868 120.738 36.7267C124.46 33.0667 126.594 28.0908 126.681 22.8717C126.768 17.6526 124.801 12.6083 121.203 8.82617C117.606 5.04407 112.666 2.82707 107.449 2.65308H106.123Z" stroke="#8D8A8B" stroke-width="2"/>
</svg>
