<svg width="20" height="28" viewBox="0 0 20 28" fill="none" xmlns="http://www.w3.org/2000/svg">
<path d="M20 28H0V0H20V28Z" stroke="white"/>
<g clip-path="url(#clip0_1290_6050)">
<path d="M5.82422 6.03125L5.41797 7.25H2.5C1.12109 7.25 0 8.37109 0 9.75V19.75C0 21.1289 1.12109 22.25 2.5 22.25H17.5C18.8789 22.25 20 21.1289 20 19.75V9.75C20 8.37109 18.8789 7.25 17.5 7.25H14.582L14.1758 6.03125C13.9219 5.26563 13.207 4.75 12.3984 4.75H7.60156C6.79297 4.75 6.07812 5.26563 5.82422 6.03125ZM10 11C10.9946 11 11.9484 11.3951 12.6517 12.0983C13.3549 12.8016 13.75 13.7554 13.75 14.75C13.75 15.7446 13.3549 16.6984 12.6517 17.4017C11.9484 18.1049 10.9946 18.5 10 18.5C9.00544 18.5 8.05161 18.1049 7.34835 17.4017C6.64509 16.6984 6.25 15.7446 6.25 14.75C6.25 13.7554 6.64509 12.8016 7.34835 12.0983C8.05161 11.3951 9.00544 11 10 11Z" fill="white"/>
</g>
<defs>
<clipPath id="clip0_1290_6050">
<path d="M0 3.5H20V23.5H0V3.5Z" fill="white"/>
</clipPath>
</defs>
</svg>
