<svg width="65" height="59" viewBox="0 0 65 59" fill="none" xmlns="http://www.w3.org/2000/svg">
<path fill-rule="evenodd" clip-rule="evenodd" d="M63.0371 55.4361C57.3625 50.5706 40.5033 36.7257 32.5 36.7257C24.4932 36.7257 7.64692 50.5612 1.96877 55.4302C1.93466 54.28 1.90291 53.5814 1.90291 52.557C1.90291 52.557 1.76413 50.8658 3.26012 49.1734C15.569 38.0206 28.4743 32.5635 28.8706 32.3965C32.7188 30.77 32.5023 31.0758 32.4988 24.5485C32.4988 24.5485 32.6705 24.5379 32.7799 24.5497C38.1993 25.0401 52.7699 39.1814 61.3929 48.7418C61.4082 48.7582 63.0947 50.7105 63.0947 52.7687C63.0971 53.7331 63.0689 54.6845 63.0371 55.4361ZM62.8054 47.4551C61.8892 46.439 40.3116 22.6209 32.5 22.6209C24.6908 22.6209 3.11193 46.439 2.19693 47.454L2.19576 47.4551C2.10637 47.5551 0 49.9626 0 52.7699C0 54.955 0.144659 57.1543 0.147011 57.1755C0.151715 57.2766 0.202287 58.2057 0.718589 58.4586C0.802091 58.4998 0.892651 58.5209 0.985562 58.5209C1.17726 58.5209 1.39131 58.4351 1.623 58.2657C1.85587 58.0599 23.8381 38.6439 32.5 38.6439C41.1631 38.6439 63.1465 58.0599 63.3664 58.2563C63.6063 58.4327 63.8227 58.5209 64.0168 58.5209C64.1109 58.5209 64.1991 58.4998 64.2838 58.4598C64.7989 58.2081 64.8495 57.2778 64.8542 57.1731C64.8553 57.1567 65 54.9574 65 52.7722C65 49.9626 62.8936 47.5551 62.8054 47.4551ZM63.0065 32.7823C57.3378 27.9227 40.495 14.0919 32.5012 14.0919C24.5026 14.0919 7.67279 27.9144 2.00052 32.7776C1.96642 31.6297 1.93467 30.9299 1.93467 29.9079C1.93467 29.9079 1.79588 28.2179 3.29069 26.5278C15.5879 15.3856 28.4801 9.93441 28.8753 9.76741C32.7199 8.14205 32.5035 8.44784 32.5 1.92761C32.5 1.92761 32.6705 1.91702 32.7811 1.92878C38.1946 2.41921 52.751 16.5464 61.3647 26.0962C61.38 26.1127 63.0653 28.0626 63.0653 30.1196C63.0665 31.0816 63.0371 32.0319 63.0065 32.7823ZM62.7748 24.8096C61.8587 23.7946 40.3033 0 32.5 0C24.699 0 3.14133 23.7946 2.22751 24.8084L2.22633 24.8096C2.13695 24.9095 0.0317552 27.3146 0.0317552 30.1196C0.0317552 32.3024 0.17759 34.4994 0.178766 34.5205C0.183471 34.6217 0.234042 35.5496 0.749169 35.8025C0.832671 35.8436 0.923229 35.8636 1.01614 35.8636C1.20784 35.8636 1.42072 35.7778 1.6524 35.6084C1.88645 35.4026 23.8463 16.0066 32.5 16.0066C41.1548 16.0066 63.1159 35.4026 63.3358 35.599C63.5746 35.7754 63.791 35.8624 63.985 35.8624C64.0791 35.8624 64.1673 35.8424 64.252 35.8013C64.766 35.5496 64.8177 34.6205 64.8212 34.5158C64.8224 34.4994 64.9671 32.3024 64.9671 30.1196C64.9682 27.3146 62.8642 24.9095 62.7748 24.8096Z" fill="#8D8A8B"/>
</svg>
