<svg width="100" height="55" viewBox="0 0 100 55" fill="none" xmlns="http://www.w3.org/2000/svg">
<g clip-path="url(#clip0_1275_5927)">
<path fill-rule="evenodd" clip-rule="evenodd" d="M5.61914 0V8.39491H36.6879V12.6275V16.8604H5.61914V25.2553H39.9233C40.7101 25.2553 41.2288 25.037 41.7651 24.4978L50.7969 15.7123L59.8289 24.4978C60.3653 25.037 60.8839 25.2553 61.6708 25.2553H95.9749V16.8604H64.9059V12.6275V8.39491H95.9749V0H61.6708C60.8839 0 60.3653 0.218287 59.8289 0.757511L50.7969 9.54293L41.7651 0.757511C41.2288 0.218287 40.7101 0 39.9233 0H5.61914Z" fill="#7A7A7A"/>
<path fill-rule="evenodd" clip-rule="evenodd" d="M0 44.1078V47.577L12.7684 47.6588C13.0732 47.6588 13.2419 47.7287 13.4358 47.9226L14.7937 49.096C14.893 49.1954 14.9385 49.2588 14.9385 49.3612C14.9385 49.4635 14.893 49.5273 14.7937 49.6266L13.4358 50.8C13.2419 50.9939 13.0732 51.0638 12.7684 51.0638L0 51.1456V54.6149H14.3671C14.8801 54.6149 15.1331 54.531 15.4622 54.2019L19.5675 49.9583C19.7221 49.8037 19.8233 49.5623 19.8233 49.3612C19.8233 49.1601 19.7221 48.9189 19.5675 48.7643L15.4622 44.5205C15.1331 44.1914 14.8801 44.1078 14.3671 44.1078H0Z" fill="#7A7A7A"/>
<path d="M32.4131 44.1078C32.1871 44.1078 32.059 44.1531 31.9704 44.2417L21.8913 54.3623C21.7854 54.4686 21.8332 54.6149 21.9977 54.6149H26.8985L32.0963 49.223C32.2042 49.1152 32.2852 49.0701 32.4131 49.0701C32.5409 49.0701 32.622 49.1152 32.7298 49.223L37.9276 54.6149H42.8284C42.9929 54.6149 43.0407 54.4686 42.9348 54.3623L32.8557 44.2417C32.7671 44.1531 32.639 44.1078 32.4131 44.1078Z" fill="#7A7A7A"/>
<path fill-rule="evenodd" clip-rule="evenodd" d="M64.9103 44.1078V47.577L52.1419 47.6588C51.8371 47.6588 51.6683 47.7287 51.4744 47.9226L50.1166 49.096C50.0173 49.1954 49.9717 49.2588 49.9717 49.3612C49.9717 49.4635 50.0173 49.5273 50.1166 49.6266L51.4744 50.8C51.6683 50.9939 51.8371 51.0638 52.1419 51.0638L64.9103 51.1456V54.6149H50.5432C50.0301 54.6149 49.7772 54.531 49.4481 54.2019L45.3427 49.9583C45.1881 49.8037 45.0869 49.5623 45.0869 49.3612C45.0869 49.1601 45.1881 48.9189 45.3427 48.7643L49.4481 44.5205C49.7772 44.1914 50.0301 44.1078 50.5432 44.1078H64.9103Z" fill="#7A7A7A"/>
<path d="M74.9248 44.1078H70.9087V54.6148H74.9248V44.1078Z" fill="#7A7A7A"/>
<path d="M89.4218 44.1078C89.1959 44.1078 89.0678 44.1531 88.9792 44.2417L78.9001 54.3623C78.7942 54.4686 78.842 54.6149 79.0065 54.6149H83.9073L89.1051 49.223C89.2129 49.1152 89.294 49.0701 89.4218 49.0701C89.5497 49.0701 89.6307 49.1152 89.7386 49.223L94.9364 54.6149H99.8372C100.002 54.6149 100.049 54.4686 99.9436 54.3623L89.8645 44.2417C89.7758 44.1531 89.6478 44.1078 89.4218 44.1078Z" fill="#7A7A7A"/>
</g>
<defs>
<clipPath id="clip0_1275_5927">
<rect width="100" height="54.6149" fill="white"/>
</clipPath>
</defs>
</svg>
