<svg width="22" height="18" viewBox="0 0 22 18" fill="none" xmlns="http://www.w3.org/2000/svg">
<g clip-path="url(#clip0_1275_5812)">
<path d="M4.95 0C5.67935 0 6.37882 0.289731 6.89454 0.805456C7.41027 1.32118 7.7 2.02065 7.7 2.75C7.7 3.47935 7.41027 4.17882 6.89454 4.69454C6.37882 5.21027 5.67935 5.5 4.95 5.5C4.22065 5.5 3.52118 5.21027 3.00546 4.69454C2.48973 4.17882 2.2 3.47935 2.2 2.75C2.2 2.02065 2.48973 1.32118 3.00546 0.805456C3.52118 0.289731 4.22065 0 4.95 0ZM17.6 0C18.3293 0 19.0288 0.289731 19.5445 0.805456C20.0603 1.32118 20.35 2.02065 20.35 2.75C20.35 3.47935 20.0603 4.17882 19.5445 4.69454C19.0288 5.21027 18.3293 5.5 17.6 5.5C16.8707 5.5 16.1712 5.21027 15.6555 4.69454C15.1397 4.17882 14.85 3.47935 14.85 2.75C14.85 2.02065 15.1397 1.32118 15.6555 0.805456C16.1712 0.289731 16.8707 0 17.6 0ZM0 10.2678C0 8.24313 1.64312 6.6 3.66781 6.6H5.13562C5.68219 6.6 6.20125 6.72031 6.66875 6.93344C6.62406 7.18094 6.60344 7.43875 6.60344 7.7C6.60344 9.01313 7.18094 10.1922 8.09188 11C8.085 11 8.07812 11 8.06781 11H0.732188C0.33 11 0 10.67 0 10.2678ZM13.9322 11C13.9253 11 13.9184 11 13.9081 11C14.8225 10.1922 15.3966 9.01313 15.3966 7.7C15.3966 7.43875 15.3725 7.18438 15.3313 6.93344C15.7987 6.71688 16.3178 6.6 16.8644 6.6H18.3322C20.3569 6.6 22 8.24313 22 10.2678C22 10.6734 21.67 11 21.2678 11H13.9322ZM7.7 7.7C7.7 6.82479 8.04768 5.98542 8.66655 5.36655C9.28542 4.74768 10.1248 4.4 11 4.4C11.8752 4.4 12.7146 4.74768 13.3335 5.36655C13.9523 5.98542 14.3 6.82479 14.3 7.7C14.3 8.57521 13.9523 9.41458 13.3335 10.0335C12.7146 10.6523 11.8752 11 11 11C10.1248 11 9.28542 10.6523 8.66655 10.0335C8.04768 9.41458 7.7 8.57521 7.7 7.7ZM4.4 16.6822C4.4 14.1522 6.45219 12.1 8.98219 12.1H13.0178C15.5478 12.1 17.6 14.1522 17.6 16.6822C17.6 17.1875 17.1909 17.6 16.6822 17.6H5.31781C4.8125 17.6 4.4 17.1909 4.4 16.6822Z" fill="#218CAC"/>
</g>
<defs>
<clipPath id="clip0_1275_5812">
<path d="M0 0H22V17.6H0V0Z" fill="white"/>
</clipPath>
</defs>
</svg>
