<svg width="22" height="22" viewBox="0 0 22 22" fill="none" xmlns="http://www.w3.org/2000/svg">
<g clip-path="url(#clip0_1275_5806)">
<path d="M7.5625 1.03125C7.5625 0.459766 7.10273 0 6.53125 0C5.95977 0 5.5 0.459766 5.5 1.03125V2.75C3.9832 2.75 2.75 3.9832 2.75 5.5H1.03125C0.459766 5.5 0 5.95977 0 6.53125C0 7.10273 0.459766 7.5625 1.03125 7.5625H2.75V9.96875H1.03125C0.459766 9.96875 0 10.4285 0 11C0 11.5715 0.459766 12.0312 1.03125 12.0312H2.75V14.4375H1.03125C0.459766 14.4375 0 14.8973 0 15.4688C0 16.0402 0.459766 16.5 1.03125 16.5H2.75C2.75 18.0168 3.9832 19.25 5.5 19.25V20.9688C5.5 21.5402 5.95977 22 6.53125 22C7.10273 22 7.5625 21.5402 7.5625 20.9688V19.25H9.96875V20.9688C9.96875 21.5402 10.4285 22 11 22C11.5715 22 12.0312 21.5402 12.0312 20.9688V19.25H14.4375V20.9688C14.4375 21.5402 14.8973 22 15.4688 22C16.0402 22 16.5 21.5402 16.5 20.9688V19.25C18.0168 19.25 19.25 18.0168 19.25 16.5H20.9688C21.5402 16.5 22 16.0402 22 15.4688C22 14.8973 21.5402 14.4375 20.9688 14.4375H19.25V12.0312H20.9688C21.5402 12.0312 22 11.5715 22 11C22 10.4285 21.5402 9.96875 20.9688 9.96875H19.25V7.5625H20.9688C21.5402 7.5625 22 7.10273 22 6.53125C22 5.95977 21.5402 5.5 20.9688 5.5H19.25C19.25 3.9832 18.0168 2.75 16.5 2.75V1.03125C16.5 0.459766 16.0402 0 15.4688 0C14.8973 0 14.4375 0.459766 14.4375 1.03125V2.75H12.0312V1.03125C12.0312 0.459766 11.5715 0 11 0C10.4285 0 9.96875 0.459766 9.96875 1.03125V2.75H7.5625V1.03125ZM6.875 5.5H15.125C15.8855 5.5 16.5 6.11445 16.5 6.875V15.125C16.5 15.8855 15.8855 16.5 15.125 16.5H6.875C6.11445 16.5 5.5 15.8855 5.5 15.125V6.875C5.5 6.11445 6.11445 5.5 6.875 5.5ZM15.125 6.875H6.875V15.125H15.125V6.875Z" fill="#218CAC"/>
</g>
<defs>
<clipPath id="clip0_1275_5806">
<path d="M0 0H22V22H0V0Z" fill="white"/>
</clipPath>
</defs>
</svg>
