<svg width="40" height="40" viewBox="0 0 40 40" fill="none" xmlns="http://www.w3.org/2000/svg">
<path d="M20 0C31.0457 0 40 8.95431 40 20C40 31.0457 31.0457 40 20 40C8.95431 40 0 31.0457 0 20C0 8.95431 8.95431 0 20 0Z" fill="#218CAC" fill-opacity="0.2"/>
<path d="M20 0C31.0457 0 40 8.95431 40 20C40 31.0457 31.0457 40 20 40C8.95431 40 0 31.0457 0 20C0 8.95431 8.95431 0 20 0Z" stroke="#E5E7EB"/>
<path d="M28 32H12V8H28V32Z" stroke="#E5E7EB"/>
<g clip-path="url(#clip0_1297_2293)">
<path d="M29.6875 20C29.6875 14.6484 25.3516 10.3125 20 10.3125C14.6484 10.3125 10.3125 14.6484 10.3125 20C10.3125 24.8352 13.8551 28.843 18.4863 29.5703V22.8004H16.0254V20H18.4863V17.8656C18.4863 15.4379 19.9316 14.0969 22.1453 14.0969C23.2055 14.0969 24.3141 14.2859 24.3141 14.2859V16.6688H23.0922C21.8891 16.6688 21.5137 17.4156 21.5137 18.1816V20H24.2004L23.7707 22.8004H21.5137V29.5703C26.1449 28.843 29.6875 24.8352 29.6875 20Z" fill="#218CAC"/>
</g>
<defs>
<clipPath id="clip0_1297_2293">
<path d="M10 10H30V30H10V10Z" fill="white"/>
</clipPath>
</defs>
</svg>
