<svg width="85" height="44" viewBox="0 0 85 44" fill="none" xmlns="http://www.w3.org/2000/svg">
<path fill-rule="evenodd" clip-rule="evenodd" d="M51.3982 26.6627C52.0454 30.0073 50.2924 32.7853 48.8359 35.4818C47.218 37.9906 44.5478 40.1469 41.3383 39.8242C34.1362 39.7164 27.0973 38.6106 20.5696 36.641C20.2732 36.5604 19.9768 36.3709 19.8145 36.1018C19.6795 35.7238 19.8689 35.373 20.1381 35.131C26.0994 30.3027 33.1927 28.0649 40.2053 25.7174C42.8211 24.9624 45.6001 24.153 48.5395 24.5309C49.7522 24.6932 50.9659 25.5298 51.3982 26.6627ZM75.9692 12.3682C79.3137 15.1191 82.3347 18.8688 81.3096 23.3998C79.6373 30.0888 72.3555 33.6491 66.5565 35.9141C63.4005 36.9664 60.2182 38.0459 56.7658 38.3695C56.5501 38.3423 56.1993 38.3958 56.1449 38.0722L56.2256 37.6952C61.1345 32.1654 64.8561 25.963 68.1209 19.6782C69.6309 16.8457 71.034 13.9336 72.3283 11.0739C72.5168 10.8582 72.7062 10.7504 72.922 10.6697C74.1347 10.7766 74.9985 11.7211 75.9692 12.3682ZM28.9028 5.24773L28.7949 5.65198C21.7016 13.716 17.0356 23.0753 12.6125 32.3802C11.7496 33.1896 10.913 32.1101 10.1308 31.7593C6.19259 29.1707 2.63233 24.9896 3.65745 20.0271C5.30252 13.5547 11.9644 10.1023 17.5214 7.75659C20.8116 6.51575 24.2377 5.51783 27.8514 4.95135C28.2294 4.95044 28.7143 4.89696 28.9028 5.24773ZM64.102 6.54204C64.5062 6.75776 64.9921 6.83843 65.235 7.24267C65.4507 7.7013 65.0193 7.99768 64.7763 8.29498C59.1931 12.6637 52.8013 15.0919 46.2735 17.2228C42.9553 18.0322 39.6108 19.4887 35.9164 18.6793C35.0526 18.4636 34.2713 17.8971 33.7855 17.0606C32.8682 14.5254 34.109 11.8824 35.1876 9.67086C36.617 6.89281 39.153 3.62894 42.6589 3.57546C50.2108 3.52108 57.3314 4.65405 64.102 6.54204ZM73.4341 6.75776C79.1524 9.88658 85.6258 15.3883 84.9514 22.7245C84.1692 29.5214 77.8309 34.2682 72.167 37.1278C55.6328 45.0305 32.4105 45.2725 15.337 38.3686C9.56431 35.9685 3.09096 31.8418 0.662773 25.6376C-1.19802 20.5401 1.06702 15.227 4.87109 11.6939C12.8273 4.46553 22.9687 1.98477 33.4075 0.554505C44.7363 -0.821377 56.657 0.392264 66.7985 3.87185C69.0644 4.70844 71.3032 5.62569 73.4341 6.75776Z" fill="#8D8A8B"/>
</svg>
