<svg width="85" height="35" viewBox="0 0 85 35" fill="none" xmlns="http://www.w3.org/2000/svg">
<g clip-path="url(#clip0_1275_5909)">
<path d="M70.8894 18.2963C70.8203 22.1093 71.6438 24.129 74.7871 24.129C77.9252 24.129 78.3755 20.6886 78.3755 18.0705C78.3755 15.4508 77.78 12.9076 74.483 12.9076C72.4604 12.9076 70.9671 14.4792 70.8894 18.2963ZM64.5303 34.2303V8.41958H70.9671C70.9671 8.41958 70.9671 8.79334 70.9671 9.46657C70.9671 10.8631 71.5304 10.2872 71.9842 9.743C72.0602 9.65201 73.4948 7.89609 76.7256 7.89609C79.9466 7.89609 84.9575 10.1398 84.9575 18.0705C84.9575 24.205 81.968 28.6931 76.805 28.6931C73.9601 28.6931 72.3153 27.5729 71.9392 27.1208C71.5626 26.6751 71.0397 26.5973 71.0397 27.1208C71.0397 27.6455 71.0397 34.2303 71.0397 34.2303H64.5303Z" fill="#8D8A8B"/>
<path d="M14.7792 0.0425739H21.7373C21.7373 0.0425739 21.7373 15.1531 21.7373 18.2964C21.7373 21.4362 20.3891 28.0216 10.7399 28.0216C1.08947 28.0216 0.0424805 21.8836 0.0424805 18.4449V15.0788H6.77592C6.77592 15.0788 6.77592 16.3504 6.77592 18.3689C6.77592 20.3886 8.12296 22.258 10.665 22.258C13.2082 22.258 14.7792 20.8372 14.7792 18.4449C14.7792 16.0509 14.7792 0.0425739 14.7792 0.0425739Z" fill="#8D8A8B"/>
<path d="M36.2888 15.5274C36.2888 13.6551 35.2435 11.86 32.8495 11.86C30.5303 11.86 29.7068 13.5042 29.7068 15.5274H36.2888ZM32.1785 7.6715C37.6427 7.6715 42.4284 9.76548 42.4284 19.4164H29.4874C29.4874 22.4837 30.7578 23.7559 33.0021 23.7559C35.247 23.7559 35.9945 21.959 35.9945 21.959H42.3553C42.3553 24.728 38.5394 28.4685 32.7775 28.3942C26.1961 28.3942 22.9785 23.5313 22.9785 18.5186C22.9785 13.5042 25.8194 7.6715 32.1785 7.6715Z" fill="#8D8A8B"/>
<path d="M56.9765 15.5274C56.9765 13.6551 55.9301 11.86 53.5361 11.86C51.2181 11.86 50.3928 13.5042 50.3928 15.5274H56.9765ZM52.8663 7.6715C58.3299 7.6715 63.1145 9.76548 63.1145 19.4164H50.174C50.174 22.4837 51.4456 23.7559 53.6916 23.7559C55.9341 23.7559 56.6828 21.959 56.6828 21.959H63.0436C63.0436 24.728 59.2271 28.4685 53.467 28.3942C46.8821 28.3942 43.6646 23.5313 43.6646 18.5186C43.6646 13.5042 46.5089 7.6715 52.8663 7.6715Z" fill="#8D8A8B"/>
<path d="M80.6971 31.136C80.6971 30.1138 81.5293 29.2834 82.555 29.2834C83.5772 29.2834 84.4077 30.1138 84.4077 31.136C84.4077 32.1565 83.5772 32.9922 82.555 32.9922C81.5293 32.9922 80.6971 32.1565 80.6971 31.136ZM80.4829 31.136C80.4829 32.2798 81.409 33.2081 82.555 33.2081C83.6936 33.2081 84.6248 32.2798 84.6248 31.136C84.6248 29.9923 83.6936 29.0639 82.555 29.0639C81.409 29.0639 80.4829 29.9923 80.4829 31.136Z" fill="#8D8A8B"/>
<path d="M83.3847 32.1957L82.9546 31.1798C83.091 31.1326 83.1365 31.0992 83.2091 31.0214C83.3035 30.9201 83.3629 30.76 83.3629 30.6148C83.3629 30.2486 83.0812 29.9992 82.6729 29.9992H81.8091V32.1957H82.0654V31.2443H82.6896L83.0997 32.1957H83.3847ZM82.0584 31.0214V30.2382H82.6678C82.9223 30.2382 83.0841 30.3833 83.0841 30.6079C83.0841 30.863 82.9125 31.0214 82.632 31.0214H82.0584Z" fill="#8D8A8B"/>
</g>
<defs>
<clipPath id="clip0_1275_5909">
<rect width="85" height="34.2728" fill="white"/>
</clipPath>
</defs>
</svg>
