<svg width="85" height="45" viewBox="0 0 85 45" fill="none" xmlns="http://www.w3.org/2000/svg">
<g clip-path="url(#clip0_1275_5941)">
<path d="M49.163 22.7714L45.4577 30.0478H45.3806L45.1933 22.7714H42.094L41.973 23.0332L42.2388 23.1954C42.4953 23.3761 42.5671 23.5595 42.6003 24.0646L43.0203 32.8946H46.4731L52.0457 22.7714H49.163ZM38.1335 28.0117C37.7866 29.0072 37.5142 29.6478 37.1115 30.0704C36.7952 30.4026 36.3779 30.6405 35.417 30.6405C34.6634 30.6405 34.2435 30.3322 34.2435 29.7488C34.2382 29.3727 34.3405 28.8012 34.7432 27.6888C35.0914 26.6947 35.3638 26.0541 35.7679 25.6315C36.0802 25.2992 36.4988 25.06 37.461 25.06C38.2146 25.06 38.6332 25.3683 38.6319 25.9491C38.6399 26.3305 38.5375 26.902 38.1335 28.0117ZM37.9727 22.6465H37.6511C35.7439 22.6465 34.6541 23.1608 33.7597 24.1111C32.6473 25.2873 31.6027 28.4676 31.6227 30.1501C31.6439 31.8659 32.7536 33.0554 35.0861 33.0554H35.4276C37.3401 33.0554 38.4299 32.541 39.3243 31.5908C40.4354 30.4119 41.4587 27.2329 41.4388 25.5517C41.4162 23.8373 40.3065 22.6465 37.9727 22.6465ZM28.6084 26.4462C28.4343 26.8781 28.243 26.9818 27.9918 27.0841C27.823 27.1505 27.4655 27.1745 27.1213 27.1745H25.7883L26.5139 25.0826H28.1247C28.6071 25.0826 28.8038 25.3338 28.8105 25.6195C28.8131 25.8016 28.7294 26.1352 28.6084 26.4462ZM28.3692 22.7714H23.9981L23.9104 23.0332L24.0871 23.2073C24.2732 23.3907 24.2665 23.6087 24.1031 24.0765L21.049 32.8946H23.8399L25.0334 29.3939L25.9783 29.3952L27.0282 32.8946H29.8325L28.5141 29.3128C29.2796 29.1892 29.6637 28.97 30.0478 28.6284C30.5741 28.1473 30.9382 27.4722 31.2399 26.4781C31.6811 25.0361 31.414 24.2121 31.1309 23.7894C30.7415 23.2073 29.9215 22.7714 28.3692 22.7714ZM57.6501 28.8344L58.4236 26.7173H54.8658L55.4174 25.1012H59.2715L60.1181 22.7648H52.8418L52.7407 23.0625L52.9148 23.2339C53.1022 23.416 53.0943 23.6326 52.9321 24.1031L49.902 32.8906H56.7012L57.5226 30.5382H53.5541L54.1389 28.8344H57.6501ZM65.8143 26.4462C65.6402 26.8781 65.4462 26.9818 65.199 27.0841C65.0262 27.1505 64.674 27.1745 64.3298 27.1745H62.9981L63.7171 25.0826H65.3305C65.8103 25.0826 66.0097 25.3338 66.0136 25.6195C66.019 25.8016 65.9326 26.1352 65.8143 26.4462ZM65.5711 22.7714H61.2013L61.1162 23.0332L61.2916 23.2073C61.479 23.3907 61.4697 23.6087 61.3089 24.0765L58.2522 32.8946H61.0471L62.2392 29.3952H63.1828L64.2341 32.8946H67.0357L65.7199 29.3128C66.4841 29.1892 66.8682 28.97 67.251 28.6284C67.7786 28.1473 68.1441 27.4722 68.4457 26.4781C68.887 25.0361 68.6199 24.2121 68.3381 23.7894C67.9487 23.2073 67.1274 22.7714 65.5711 22.7714ZM71.3018 36.3566C63.6347 40.3184 53.4079 42.5007 42.5007 42.5007C31.5947 42.5007 21.3693 40.3184 13.7008 36.3566C6.32613 32.545 2.26199 27.5811 2.26199 22.382C2.26199 17.1789 6.32613 12.215 13.7008 8.40607C21.3693 4.44559 31.5947 2.26068 42.5007 2.26068C53.4079 2.26068 63.6347 4.44559 71.3018 8.40607C78.6779 12.215 82.738 17.1789 82.738 22.382C82.738 27.5811 78.6779 32.545 71.3018 36.3566ZM72.3398 6.39659C64.355 2.27132 53.7588 2.67029e-05 42.5007 2.67029e-05C31.2426 2.67029e-05 20.645 2.27132 12.6629 6.39659C7.93424 8.84065 0 14.1674 0 22.382C0 30.5927 7.93424 35.9207 12.6629 38.3648C20.6436 42.4901 31.2399 44.7614 42.5007 44.7614C53.7601 44.7614 64.3564 42.4901 72.3398 38.3648C77.0684 35.9207 85 30.594 85 22.382C85 14.166 77.0684 8.84065 72.3398 6.39659ZM70.228 34.2794C61.9788 38.5402 51.7174 40.1603 42.5007 40.1603C33.2826 40.1603 23.0239 38.5402 14.772 34.2794C10.4062 32.0214 4.60239 27.8616 4.60239 22.382C4.60239 16.8972 10.4049 12.7413 14.772 10.4846C23.0239 6.22382 33.2826 4.60374 42.5007 4.60374C51.7174 4.60374 61.9788 6.22116 70.228 10.4846C74.5978 12.7413 80.3989 16.8972 80.3989 22.382C80.3989 27.8642 74.5965 32.0214 70.228 34.2794ZM70.6559 9.65401C62.2804 5.32274 51.8516 3.66546 42.5007 3.66546C33.1484 3.66546 22.7222 5.32407 14.3428 9.65401C9.63804 12.0835 3.66676 16.4692 3.66676 22.382C3.66676 28.2895 9.63804 32.6779 14.3428 35.11C22.7222 39.4373 33.151 41.0959 42.5007 41.0959C51.8516 41.0959 62.2804 39.44 70.6559 35.11C75.3633 32.6779 81.3346 28.2895 81.3346 22.382C81.3346 16.4692 75.3646 12.0835 70.6559 9.65401ZM21.3746 24.0765L13.7367 26.5884L12.8038 29.1481H19.5392L20.4164 26.7359H15.7475L21.0477 24.9417L21.3746 24.0765ZM51.7666 12.8609H52.8736C53.6272 12.8609 54.0432 13.1134 54.0525 13.6969C54.0591 14.073 53.9581 14.5887 53.5674 15.6984C53.2219 16.6912 52.9454 17.2666 52.5534 17.6879C52.2384 18.0202 51.8197 18.1677 50.8589 18.1677H49.9339L51.7666 12.8609ZM49.3398 11.7645L46.3176 20.5825H50.7765C52.6876 20.5825 53.7787 20.1586 54.6638 19.2097C55.7749 18.0348 56.7903 14.9781 56.757 13.2955C56.7238 11.5784 55.6154 10.4607 53.283 10.4607H49.2321L49.1471 10.7212L49.3225 10.8927C49.5086 11.0774 49.5019 11.2954 49.3398 11.7645ZM66.1652 14.0903H59.4297L58.5525 16.4998H63.2201L57.9186 18.2993L57.5917 19.1618L65.2295 16.65L66.1652 14.0903ZM36.0616 20.5772H38.6L40.8141 14.0291L42.1086 20.5772H44.6497L48.1131 10.4567L45.4577 10.4607L43.6077 15.9615L42.5512 10.4607H38.9721L38.8844 10.7212L39.0598 10.8927C39.2486 11.0774 39.2393 11.2954 39.0784 11.7645L36.0616 20.5772ZM17.862 20.5825L24.7689 20.5799L25.6035 18.1677H21.5886L24.2413 10.4607H20.7779L20.6915 10.7212L20.8643 10.8927C21.053 11.0774 21.045 11.2954 20.8829 11.7645L17.862 20.5825ZM32.557 13.2583H32.6473L32.6952 16.3151H30.8319L32.557 13.2583ZM25.4852 20.5772H28.4237L29.6969 18.3405H32.739L32.7696 20.5772H35.4356L34.8601 10.4607H30.8691L30.7801 10.7212L30.909 10.8501C31.119 11.0561 31.0326 11.3525 30.2551 12.5858L25.4852 20.5772Z" fill="#8D8A8B"/>
</g>
<defs>
<clipPath id="clip0_1275_5941">
<rect width="85" height="44.7613" fill="white"/>
</clipPath>
</defs>
</svg>
