<svg width="36" height="36" viewBox="0 0 36 36" fill="none" xmlns="http://www.w3.org/2000/svg">
<path d="M26.6086 14.8965V21.913C26.6086 23.5308 25.2917 24.8478 23.6738 24.8478H18.7825C18.5527 24.8478 18.3313 24.9285 18.1565 25.074L13.8912 28.6286V25.8259C13.8912 25.2854 13.4535 24.8477 12.913 24.8477H8.02168C6.40387 24.8477 5.08689 23.5307 5.08689 21.9129V14.0868C5.08689 12.469 6.40387 11.152 8.02168 11.152H17.4092L18.714 9.1955H8.02168C5.32534 9.1955 3.13037 11.3905 3.13037 14.0868V21.9129C3.13037 24.6092 5.32534 26.8042 8.02168 26.8042H11.9347V30.7172C11.9347 31.0963 12.1548 31.4424 12.4984 31.6026C12.6305 31.6649 12.7711 31.6955 12.913 31.6955C13.138 31.6955 13.3605 31.6185 13.5391 31.4693L19.1372 26.8043H23.6738C26.3702 26.8043 28.5652 24.6093 28.5652 21.913V12.9399L26.6086 14.8965Z" fill="#218CAC"/>
<path d="M19.7608 21.9131C19.4967 21.9131 19.235 21.8067 19.0418 21.5988C17.0584 19.4491 14.636 19.4491 12.6526 21.5988C12.2882 21.9938 11.6682 22.0195 11.2708 21.6538C10.8746 21.2882 10.8489 20.6695 11.2157 20.272C12.5877 18.7851 14.1896 18 15.8478 18C17.506 18 19.1079 18.7851 20.4799 20.2708C20.8468 20.6682 20.8224 21.287 20.4249 21.6526C20.2366 21.8275 19.9993 21.9131 19.7608 21.9131Z" fill="#218CAC"/>
<path d="M17.8043 23.8696C17.5414 23.8696 17.2785 23.7632 17.0853 23.5553C16.8065 23.252 16.365 22.8913 15.8478 22.8913C15.3306 22.8913 14.8891 23.252 14.6103 23.5553C14.241 23.9503 13.6235 23.9747 13.2285 23.6103C12.8323 23.2435 12.8066 22.626 13.1735 22.2285C14.735 20.5374 16.9619 20.5374 18.5234 22.2285C18.8902 22.6259 18.8658 23.2435 18.4684 23.6103C18.2801 23.784 18.0428 23.8696 17.8043 23.8696Z" fill="#218CAC"/>
<path d="M20.739 18.9782C20.5495 18.9782 20.3575 18.9232 20.1912 18.8095C19.8023 18.5466 19.6556 18.0452 19.8403 17.6148L22.1905 12.1303H19.7608C19.4 12.1303 19.0687 11.9322 18.8987 11.613C18.7287 11.2951 18.7483 10.9087 18.9476 10.6091L22.8606 4.73952C23.0416 4.46805 23.3473 4.3042 23.6738 4.3042H28.5651C28.9357 4.3042 29.2744 4.5133 29.4407 4.8447C29.6058 5.17609 29.5703 5.57228 29.3477 5.86942L27.5869 8.21724H29.5434C29.9384 8.21724 30.2966 8.45569 30.4471 8.82132C30.5987 9.18696 30.5143 9.60759 30.2355 9.88761L21.4312 18.692C21.2416 18.8803 20.9909 18.9782 20.739 18.9782ZM21.5889 10.1739H23.6738C24.0028 10.1739 24.3097 10.339 24.4907 10.6129C24.6716 10.888 24.7022 11.2353 24.5726 11.5361L23.6396 13.7152L27.182 10.174H25.6302C25.2597 10.174 24.921 9.9649 24.7547 9.6335C24.5896 9.30211 24.625 8.90593 24.8476 8.60879L26.6085 6.26096H24.1971L21.5889 10.1739Z" fill="#218CAC"/>
<path d="M16.826 24.8478C16.826 26.1526 14.8695 26.1526 14.8695 24.8478C14.8695 23.5431 16.826 23.5431 16.826 24.8478Z" fill="#218CAC"/>
<path d="M26.6086 14.8965V21.913C26.6086 23.5308 25.2917 24.8478 23.6738 24.8478H18.7825C18.5527 24.8478 18.3313 24.9285 18.1565 25.074L13.8912 28.6286V25.8259C13.8912 25.2854 13.4535 24.8477 12.913 24.8477H8.02168C6.40387 24.8477 5.08689 23.5307 5.08689 21.9129V14.0868C5.08689 12.469 6.40387 11.152 8.02168 11.152H17.4092L18.714 9.1955H8.02168C5.32534 9.1955 3.13037 11.3905 3.13037 14.0868V21.9129C3.13037 24.6092 5.32534 26.8042 8.02168 26.8042H11.9347V30.7172C11.9347 31.0963 12.1548 31.4424 12.4984 31.6026C12.6305 31.6649 12.7711 31.6955 12.913 31.6955C13.138 31.6955 13.3605 31.6185 13.5391 31.4693L19.1372 26.8043H23.6738C26.3702 26.8043 28.5652 24.6093 28.5652 21.913V12.9399L26.6086 14.8965Z" stroke="#D3E8EE" stroke-width="0.7"/>
<path d="M19.7608 21.9131C19.4967 21.9131 19.235 21.8067 19.0418 21.5988C17.0584 19.4491 14.636 19.4491 12.6526 21.5988C12.2882 21.9938 11.6682 22.0195 11.2708 21.6538C10.8746 21.2882 10.8489 20.6695 11.2157 20.272C12.5877 18.7851 14.1896 18 15.8478 18C17.506 18 19.1079 18.7851 20.4799 20.2708C20.8468 20.6682 20.8224 21.287 20.4249 21.6526C20.2366 21.8275 19.9993 21.9131 19.7608 21.9131Z" stroke="#D3E8EE" stroke-width="0.7"/>
<path d="M17.8043 23.8696C17.5414 23.8696 17.2785 23.7632 17.0853 23.5553C16.8065 23.252 16.365 22.8913 15.8478 22.8913C15.3306 22.8913 14.8891 23.252 14.6103 23.5553C14.241 23.9503 13.6235 23.9747 13.2285 23.6103C12.8323 23.2435 12.8066 22.626 13.1735 22.2285C14.735 20.5374 16.9619 20.5374 18.5234 22.2285C18.8902 22.6259 18.8658 23.2435 18.4684 23.6103C18.2801 23.784 18.0428 23.8696 17.8043 23.8696Z" stroke="#D3E8EE" stroke-width="0.7"/>
<path d="M20.739 18.9782C20.5495 18.9782 20.3575 18.9232 20.1912 18.8095C19.8023 18.5466 19.6556 18.0452 19.8403 17.6148L22.1905 12.1303H19.7608C19.4 12.1303 19.0687 11.9322 18.8987 11.613C18.7287 11.2951 18.7483 10.9087 18.9476 10.6091L22.8606 4.73952C23.0416 4.46805 23.3473 4.3042 23.6738 4.3042H28.5651C28.9357 4.3042 29.2744 4.5133 29.4407 4.8447C29.6058 5.17609 29.5703 5.57228 29.3477 5.86942L27.5869 8.21724H29.5434C29.9384 8.21724 30.2966 8.45569 30.4471 8.82132C30.5987 9.18696 30.5143 9.60759 30.2355 9.88761L21.4312 18.692C21.2416 18.8803 20.9909 18.9782 20.739 18.9782ZM21.5889 10.1739H23.6738C24.0028 10.1739 24.3097 10.339 24.4907 10.6129C24.6716 10.888 24.7022 11.2353 24.5726 11.5361L23.6396 13.7152L27.182 10.174H25.6302C25.2597 10.174 24.921 9.9649 24.7547 9.6335C24.5896 9.30211 24.625 8.90593 24.8476 8.60879L26.6085 6.26096H24.1971L21.5889 10.1739Z" stroke="#D3E8EE" stroke-width="0.7"/>
<path d="M16.826 24.8478C16.826 26.1526 14.8695 26.1526 14.8695 24.8478C14.8695 23.5431 16.826 23.5431 16.826 24.8478Z" stroke="#D3E8EE" stroke-width="0.7"/>
</svg>
