<svg width="30" height="30" viewBox="0 0 30 30" fill="none" xmlns="http://www.w3.org/2000/svg">
<path d="M15 2.5C18.3152 2.5 21.4946 3.81696 23.8388 6.16117C26.183 8.50537 27.5 11.6848 27.5 15C27.5 18.3152 26.183 21.4946 23.8388 23.8388C21.4946 26.183 18.3152 27.5 15 27.5C11.6848 27.5 8.50537 26.183 6.16117 23.8388C3.81696 21.4946 2.5 18.3152 2.5 15C2.5 11.6848 3.81696 8.50537 6.16117 6.16117C8.50537 3.81696 11.6848 2.5 15 2.5ZM13.8281 8.35938V15C13.8281 15.3906 14.0234 15.7568 14.3506 15.9766L19.0381 19.1016C19.5752 19.4629 20.3027 19.3164 20.6641 18.7744C21.0254 18.2324 20.8789 17.5098 20.3369 17.1484L16.1719 14.375V8.35938C16.1719 7.70996 15.6494 7.1875 15 7.1875C14.3506 7.1875 13.8281 7.70996 13.8281 8.35938Z" fill="white"/>
</svg>
