<svg width="199" height="32" viewBox="0 0 199 32" fill="none" xmlns="http://www.w3.org/2000/svg">
<path d="M9.5498 0.304016C9.84829 0.0607291 10.2892 0.0785799 10.5674 0.35675L24.001 13.7903L22.3887 15.4026L10.0293 3.04425L2.90918 10.1644L21.1797 28.4339L28.2998 21.3138L24.5381 17.5521L26.1504 15.9398L30.9873 20.7767C31.2837 21.0733 31.2835 21.5542 30.9873 21.8509L21.7168 31.1214L21.6592 31.1732C21.3608 31.4162 20.9207 31.3992 20.6426 31.1214L0.222656 10.7015C-0.0554703 10.4234 -0.0732442 9.98238 0.169922 9.6839L0.222656 9.62628L9.49219 0.355774L9.5498 0.304016Z" fill="#032D3A"/>
<path d="M6.53613 17.5527L2.90918 21.1796L10.0293 28.2997L13.6562 24.6728L15.2686 26.2851L10.5664 30.9872C10.2697 31.2834 9.78883 31.2834 9.49219 30.9872L0.222656 21.7167L0.169922 21.6591C-0.0730874 21.3607 -0.0551896 20.9206 0.222656 20.6425L4.92383 15.9404L6.53613 17.5527ZM20.6426 0.222595C20.9207 -0.0551451 21.3608 -0.0731383 21.6592 0.169861L21.7178 0.222595L30.9873 9.49213L31.0391 9.54974C31.2823 9.84823 31.2645 10.2892 30.9863 10.5673L17.418 24.1357L15.8057 22.5234L28.2998 10.0292L21.1797 2.90912L17.418 6.67084L15.8057 5.05853L20.6426 0.222595ZM15.2686 8.82025L8.68555 15.4033L7.07324 13.791L13.6562 7.20795L15.2686 8.82025Z" fill="#218CAC"/>
<path d="M49.6168 8.94039L43.1865 24.5922C43.1135 24.8111 42.9858 24.9844 42.8034 25.1121C42.621 25.2398 42.4294 25.3036 42.2288 25.3036C41.8822 25.3036 41.6268 25.2124 41.4626 25.03C41.2984 24.8475 41.2163 24.6286 41.2163 24.3733C41.1981 24.2456 41.2163 24.1087 41.271 23.9628L48.3581 6.72397C48.4493 6.46858 48.5861 6.28616 48.7686 6.17671C48.9692 6.04901 49.1881 5.99428 49.4253 6.01253C49.6624 6.01253 49.8722 6.07637 50.0546 6.20407C50.2553 6.33176 50.3921 6.50506 50.4651 6.72397L57.5248 23.7986C57.5795 23.9446 57.6069 24.0905 57.6069 24.2364C57.6069 24.5648 57.4974 24.8293 57.2785 25.03C57.0596 25.2124 56.8134 25.3036 56.5397 25.3036C56.3208 25.3036 56.1202 25.2398 55.9377 25.1121C55.7553 24.9844 55.6185 24.8019 55.5273 24.5648L49.0148 8.91303L49.6168 8.94039ZM44.5546 20.132L45.485 17.9976H53.6119L54.0223 20.132H44.5546Z" fill="#032D3A"/>
<path d="M74.1832 6.06725C74.4933 6.06725 74.7487 6.17671 74.9494 6.39561C75.1501 6.61452 75.2504 6.87903 75.2504 7.18915V18.0523C75.2504 19.457 74.922 20.7157 74.2653 21.8285C73.6268 22.9412 72.7603 23.826 71.6658 24.4827C70.5713 25.1212 69.3308 25.4404 67.9444 25.4404C66.5398 25.4404 65.2811 25.1212 64.1683 24.4827C63.0738 23.826 62.2073 22.9412 61.5688 21.8285C60.9303 20.7157 60.6111 19.457 60.6111 18.0523V7.18915C60.6111 6.87903 60.7114 6.61452 60.9121 6.39561C61.131 6.17671 61.4137 6.06725 61.7603 6.06725C62.0522 6.06725 62.3076 6.17671 62.5265 6.39561C62.7636 6.61452 62.8822 6.87903 62.8822 7.18915V18.0523C62.8822 19.0557 63.1102 19.9495 63.5663 20.7339C64.0224 21.5184 64.6335 22.1386 65.3996 22.5946C66.184 23.0325 67.0323 23.2514 67.9444 23.2514C68.8748 23.2514 69.7321 23.0325 70.5166 22.5946C71.301 22.1386 71.9303 21.5184 72.4046 20.7339C72.8972 19.9495 73.1434 19.0557 73.1434 18.0523V7.18915C73.1434 6.87903 73.2346 6.61452 73.4171 6.39561C73.5995 6.17671 73.8549 6.06725 74.1832 6.06725Z" fill="#032D3A"/>
<path d="M86.2493 25.2489C85.921 25.2489 85.6474 25.1394 85.4284 24.9205C85.2095 24.7016 85.1001 24.4371 85.1001 24.127V7.21651H87.426V24.127C87.426 24.4371 87.3165 24.7016 87.0976 24.9205C86.8787 25.1394 86.5959 25.2489 86.2493 25.2489ZM79.9011 8.17422C79.591 8.17422 79.3264 8.08301 79.1075 7.90059C78.9069 7.69993 78.8065 7.44453 78.8065 7.13442C78.8065 6.8243 78.9069 6.57803 79.1075 6.39561C79.3264 6.19495 79.591 6.09462 79.9011 6.09462H92.625C92.9351 6.09462 93.1996 6.19495 93.4185 6.39561C93.6374 6.57803 93.7469 6.8243 93.7469 7.13442C93.7469 7.46278 93.6374 7.71817 93.4185 7.90059C93.1996 8.08301 92.9351 8.17422 92.625 8.17422H79.9011Z" fill="#032D3A"/>
<path d="M114.045 15.6717C114.045 17.0764 113.817 18.3807 113.361 19.5847C112.905 20.7704 112.266 21.8102 111.445 22.7041C110.624 23.598 109.648 24.2912 108.517 24.7837C107.386 25.2762 106.155 25.5225 104.823 25.5225C103.473 25.5225 102.233 25.2762 101.102 24.7837C99.9893 24.2912 99.0224 23.598 98.2015 22.7041C97.3806 21.8102 96.7421 20.7704 96.2861 19.5847C95.83 18.3807 95.602 17.0764 95.602 15.6717C95.602 14.2489 95.83 12.9445 96.2861 11.7588C96.7421 10.5548 97.3806 9.51502 98.2015 8.6394C99.0224 7.74553 99.9893 7.05233 101.102 6.55979C102.233 6.06725 103.473 5.82098 104.823 5.82098C106.155 5.82098 107.386 6.06725 108.517 6.55979C109.648 7.05233 110.624 7.74553 111.445 8.6394C112.266 9.51502 112.905 10.5548 113.361 11.7588C113.817 12.9445 114.045 14.2489 114.045 15.6717ZM111.692 15.6717C111.692 14.1759 111.391 12.8533 110.789 11.7041C110.205 10.5548 109.402 9.65184 108.381 8.99512C107.359 8.3384 106.173 8.01004 104.823 8.01004C103.473 8.01004 102.279 8.3384 101.239 8.99512C100.217 9.65184 99.4146 10.5548 98.8309 11.7041C98.2471 12.8533 97.9552 14.1759 97.9552 15.6717C97.9552 17.1494 98.2471 18.4719 98.8309 19.6394C99.4146 20.7887 100.217 21.6917 101.239 22.3484C102.279 23.0051 103.473 23.3334 104.823 23.3334C106.173 23.3334 107.359 23.0051 108.381 22.3484C109.402 21.6917 110.205 20.7887 110.789 19.6394C111.391 18.4719 111.692 17.1494 111.692 15.6717Z" fill="#032D3A"/>
<path d="M119.071 6.06725C119.235 6.06725 119.408 6.11286 119.591 6.20407C119.791 6.29528 119.946 6.41385 120.056 6.55979L127.307 17.5324L126.349 17.5051L133.683 6.55979C133.92 6.21319 134.23 6.04901 134.613 6.06725C134.905 6.08549 135.16 6.19495 135.379 6.39561C135.598 6.59628 135.708 6.86079 135.708 7.18915V24.127C135.708 24.4371 135.598 24.7016 135.379 24.9205C135.16 25.1394 134.887 25.2489 134.558 25.2489C134.23 25.2489 133.956 25.1394 133.737 24.9205C133.518 24.7016 133.409 24.4371 133.409 24.127V9.26875L134.093 9.40557L127.635 19.229C127.526 19.3567 127.389 19.4661 127.225 19.5573C127.079 19.6485 126.924 19.6941 126.76 19.6941C126.596 19.6941 126.431 19.6485 126.267 19.5573C126.103 19.4661 125.966 19.3567 125.857 19.229L119.481 9.40557L120.056 8.69412V24.127C120.056 24.4371 119.955 24.7016 119.755 24.9205C119.554 25.1394 119.299 25.2489 118.989 25.2489C118.678 25.2489 118.423 25.1394 118.222 24.9205C118.04 24.7016 117.949 24.4371 117.949 24.127V7.18915C117.949 6.89727 118.049 6.64188 118.25 6.42298C118.469 6.18583 118.742 6.06725 119.071 6.06725Z" fill="#032D3A"/>
<path d="M143.047 24.127C143.047 24.4371 142.928 24.7016 142.691 24.9205C142.472 25.1394 142.208 25.2489 141.898 25.2489C141.551 25.2489 141.277 25.1394 141.077 24.9205C140.876 24.7016 140.776 24.4371 140.776 24.127V7.21651C140.776 6.88815 140.885 6.62364 141.104 6.42298C141.323 6.20407 141.597 6.09462 141.925 6.09462C142.235 6.09462 142.5 6.20407 142.718 6.42298C142.937 6.62364 143.047 6.88815 143.047 7.21651V24.127Z" fill="#032D3A"/>
<path d="M154.068 25.2489C153.74 25.2489 153.466 25.1394 153.248 24.9205C153.029 24.7016 152.919 24.4371 152.919 24.127V7.21651H155.245V24.127C155.245 24.4371 155.136 24.7016 154.917 24.9205C154.698 25.1394 154.415 25.2489 154.068 25.2489ZM147.72 8.17422C147.41 8.17422 147.146 8.08301 146.927 7.90059C146.726 7.69993 146.626 7.44453 146.626 7.13442C146.626 6.8243 146.726 6.57803 146.927 6.39561C147.146 6.19495 147.41 6.09462 147.72 6.09462H160.444C160.754 6.09462 161.019 6.19495 161.238 6.39561C161.457 6.57803 161.566 6.8243 161.566 7.13442C161.566 7.46278 161.457 7.71817 161.238 7.90059C161.019 8.08301 160.754 8.17422 160.444 8.17422H147.72Z" fill="#032D3A"/>
<path d="M166.391 25.2489C166.044 25.2489 165.743 25.1394 165.488 24.9205C165.251 24.7016 165.132 24.4371 165.132 24.127V7.18915C165.132 6.87903 165.233 6.62364 165.433 6.42298C165.652 6.20407 165.917 6.09462 166.227 6.09462H173.779C174.801 6.09462 175.722 6.33176 176.543 6.80606C177.364 7.26211 178.011 7.90059 178.485 8.72149C178.978 9.52414 179.224 10.4545 179.224 11.5125C179.224 12.2787 179.078 12.9993 178.786 13.6742C178.495 14.3309 178.093 14.9056 177.582 15.3981C177.072 15.8724 176.488 16.2373 175.831 16.4926L175.229 16.0548C175.849 16.2008 176.406 16.4653 176.898 16.8484C177.391 17.2132 177.792 17.6875 178.102 18.2713C178.412 18.8368 178.577 19.5026 178.595 20.2688C178.631 20.9437 178.677 21.4819 178.732 21.8832C178.786 22.2845 178.869 22.6038 178.978 22.8409C179.087 23.0598 179.242 23.2331 179.443 23.3608C179.699 23.525 179.863 23.7439 179.936 24.0175C180.027 24.2912 179.981 24.5557 179.799 24.8111C179.689 24.9752 179.534 25.0938 179.334 25.1668C179.133 25.2215 178.932 25.2398 178.732 25.2215C178.531 25.2033 178.358 25.1485 178.212 25.0573C177.92 24.8932 177.637 24.656 177.364 24.3459C177.09 24.0175 176.862 23.5524 176.679 22.9504C176.497 22.3484 176.406 21.5275 176.406 20.4877C176.406 19.9039 176.315 19.4205 176.132 19.0374C175.95 18.6543 175.704 18.3442 175.393 18.1071C175.083 17.8699 174.737 17.7057 174.354 17.6145C173.971 17.5233 173.578 17.4777 173.177 17.4777H167.075L167.403 16.9852V24.127C167.403 24.4371 167.312 24.7016 167.13 24.9205C166.947 25.1394 166.701 25.2489 166.391 25.2489ZM167.075 15.5076H173.779C174.308 15.4711 174.801 15.2887 175.257 14.9603C175.731 14.6319 176.114 14.1759 176.406 13.5921C176.716 12.9901 176.871 12.3152 176.871 11.5673C176.871 10.6004 176.561 9.79777 175.941 9.1593C175.339 8.52082 174.573 8.20158 173.642 8.20158H167.184L167.403 7.68168V16.0001L167.075 15.5076Z" fill="#032D3A"/>
<path d="M190.519 8.94039L184.089 24.5922C184.016 24.8111 183.888 24.9844 183.706 25.1121C183.523 25.2398 183.332 25.3036 183.131 25.3036C182.785 25.3036 182.529 25.2124 182.365 25.03C182.201 24.8475 182.119 24.6286 182.119 24.3733C182.101 24.2456 182.119 24.1087 182.173 23.9628L189.261 6.72397C189.352 6.46858 189.489 6.28616 189.671 6.17671C189.872 6.04901 190.091 5.99428 190.328 6.01253C190.565 6.01253 190.775 6.07637 190.957 6.20407C191.158 6.33176 191.295 6.50506 191.368 6.72397L198.427 23.7986C198.482 23.9446 198.509 24.0905 198.509 24.2364C198.509 24.5648 198.4 24.8293 198.181 25.03C197.962 25.2124 197.716 25.3036 197.442 25.3036C197.223 25.3036 197.023 25.2398 196.84 25.1121C196.658 24.9844 196.521 24.8019 196.43 24.5648L189.917 8.91303L190.519 8.94039ZM185.457 20.132L186.387 17.9976H194.514L194.925 20.132H185.457Z" fill="#032D3A"/>
</svg>
