<svg width="70" height="70" viewBox="0 0 70 70" fill="none" xmlns="http://www.w3.org/2000/svg">
<path fill-rule="evenodd" clip-rule="evenodd" d="M50.4315 5.52035C61.0181 11.088 68.25 22.1882 68.25 34.9834C68.25 47.7785 61.0181 58.9137 50.4315 64.4472V60.6427C54.4801 58.2207 57.9048 54.8319 60.3968 50.8209L50.4315 46.7757V40.6201L61.3646 49.1619C63.6483 44.9426 64.9285 40.1354 64.9285 34.9825C64.9285 24.1237 59.115 14.5801 50.4315 9.3231V5.52035ZM35.035 1.75085C40.5711 1.75085 45.7948 3.1001 50.4315 5.52035V9.32485C46.1755 6.7646 41.1932 5.24385 35.9345 5.0706L39.7399 32.2866L50.4315 40.621V46.7766L34.965 40.5169L19.6026 46.8107V40.6892L30.3634 32.2857L34.1346 5.06973C28.8059 5.24298 23.8586 6.7646 19.6026 9.3231V5.52035C24.2051 3.1001 29.4639 1.75085 35.035 1.75085ZM50.4315 64.4472C45.7948 66.8675 40.5702 68.25 35.035 68.25C29.4647 68.25 24.206 66.8675 19.6035 64.4813V60.6427C24.1019 63.3736 29.3947 64.9302 35.035 64.9302C40.6402 64.9302 45.8998 63.3736 50.4315 60.6427V64.4472ZM19.6035 64.4813C8.981 58.9137 1.75 47.7785 1.75 34.9834C1.75 22.1882 8.981 11.088 19.6035 5.52035V9.32485C10.8841 14.581 5.0715 24.0905 5.0715 34.9834C5.0715 40.1354 6.38663 45.0126 8.67037 49.231L19.6035 40.6892V46.8107L9.67312 50.89C12.1642 54.8686 15.5549 58.2216 19.6035 60.6427V64.4813Z" fill="#8D8A8B"/>
</svg>
