<svg width="80" height="63" viewBox="0 0 80 63" fill="none" xmlns="http://www.w3.org/2000/svg">
<path d="M40.0007 58.5638C24.8471 58.5638 12.5181 46.2348 12.5181 31.0812C12.5181 30.2991 12.5582 29.526 12.6253 28.7619L35.5993 30.1964L25.6563 37.0694C25.5222 37.1632 25.4328 37.3197 25.4328 37.4939C25.4328 37.7799 25.6652 38.0168 25.9512 38.0168H66.5991C63.5156 49.823 52.7588 58.5643 40.0008 58.5643M40.0008 3.59804C55.159 3.59804 67.4834 15.927 67.4834 31.0806C67.4834 31.8582 67.4433 32.6269 67.3807 33.3865H67.3673L44.3932 31.9251L54.3631 25.0924C54.5016 24.9986 54.5865 24.8421 54.5865 24.6679C54.5865 24.3774 54.3541 24.145 54.0681 24.145H13.4065C16.4855 12.3388 27.2422 3.59742 40.0002 3.59742M79.4011 34.1505L71.8802 33.6724L70.973 33.6143C71.04 32.7786 71.0848 31.9339 71.0848 31.0805C71.0848 13.9432 57.1416 0 39.9997 0C25.2442 0 12.8695 10.3364 9.70626 24.1444H2.83772C2.44894 24.1444 2.10484 24.3276 1.88587 24.6136L0.129595 27.0402C0.0491711 27.1429 0 27.2725 0 27.4111C0 27.7418 0.268126 28.0099 0.603287 28.0099L8.09302 28.4746L9.03147 28.5372C8.96443 29.3774 8.91982 30.222 8.91982 31.08C8.91982 48.2173 22.863 62.1651 40.0003 62.1651C54.7558 62.1651 67.1351 51.8243 70.2937 38.0162H77.1667C77.5555 38.0162 77.8996 37.833 78.1186 37.547L79.8749 35.1204C79.9553 35.0176 80 34.888 80 34.7495C80 34.4188 79.7319 34.1506 79.4012 34.1506" fill="#8D8A8B"/>
</svg>
