<svg width="36" height="36" viewBox="0 0 36 36" fill="none" xmlns="http://www.w3.org/2000/svg">
<path fill-rule="evenodd" clip-rule="evenodd" d="M21.5885 4.76713C20.8919 4.76706 20.2109 4.97358 19.6317 5.36055C19.0525 5.74752 18.601 6.29757 18.3344 6.94113C18.0677 7.5847 17.9979 8.29287 18.1338 8.9761C18.2697 9.65934 18.6051 10.2869 19.0976 10.7795C19.5902 11.2721 20.2178 11.6076 20.901 11.7435C21.5842 11.8795 22.2924 11.8097 22.936 11.5432C23.5796 11.2766 24.1297 10.8252 24.5167 10.246C24.9037 9.66675 25.1103 8.98579 25.1103 8.28918C25.1103 7.35513 24.7392 6.45933 24.0788 5.79882C23.4183 5.13832 22.5226 4.76721 21.5885 4.76713ZM14.2295 18.3063L15.3959 20.4747L17.8214 20.9145C17.8968 20.9284 17.967 20.9623 18.0248 21.0127C18.0825 21.0631 18.1255 21.1282 18.1494 21.2011C18.1732 21.2739 18.177 21.3518 18.1602 21.4266C18.1435 21.5014 18.1069 21.5703 18.0543 21.6261L16.3488 23.4104L16.6803 25.8547C16.6906 25.9309 16.68 26.0084 16.6498 26.0791C16.6195 26.1498 16.5707 26.2109 16.5085 26.2561C16.4463 26.3012 16.373 26.3287 16.2965 26.3356C16.2199 26.3425 16.1429 26.3285 16.0736 26.2951L13.851 25.2248L11.6284 26.2951C11.5581 26.329 11.4798 26.3429 11.402 26.3353C11.3243 26.3277 11.2502 26.2989 11.1877 26.252C11.1253 26.2052 11.0769 26.142 11.0479 26.0695C11.0189 25.997 11.0104 25.9179 11.0233 25.8409L11.3526 23.4104L9.64717 21.6261C9.593 21.569 9.55567 21.4981 9.53933 21.4212C9.52299 21.3442 9.52827 21.2643 9.55459 21.1901C9.58091 21.116 9.62724 21.0506 9.68845 21.0012C9.74966 20.9518 9.82335 20.9203 9.90136 20.9102L12.3058 20.4741L13.4748 18.3016C13.5116 18.2338 13.5661 18.1774 13.6324 18.1382C13.6988 18.099 13.7745 18.0785 13.8516 18.0789C13.9287 18.0793 14.0042 18.1006 14.0702 18.1405C14.1361 18.1805 14.19 18.2375 14.2261 18.3056L14.2295 18.3063ZM14.7426 21.0582L13.852 19.4032L12.9614 21.0582C12.931 21.1146 12.8883 21.1634 12.8364 21.201C12.7845 21.2386 12.7248 21.2639 12.6618 21.2752L10.8126 21.6107L12.113 22.9706C12.157 23.0168 12.19 23.0723 12.2097 23.133C12.2293 23.1937 12.235 23.258 12.2263 23.3212L11.9734 25.1848C12.5369 24.9127 13.1004 24.6388 13.667 24.369C13.7247 24.341 13.788 24.3265 13.8521 24.3265C13.9163 24.3265 13.9796 24.341 14.0373 24.369L15.7305 25.1848L15.4801 23.3315C15.4698 23.2669 15.4745 23.2008 15.4939 23.1383C15.5132 23.0758 15.5468 23.0187 15.5919 22.9712L16.8926 21.6114L15.0678 21.2805C14.9999 21.2723 14.935 21.248 14.8785 21.2094C14.822 21.1709 14.7756 21.1194 14.7432 21.0592L14.7426 21.0582ZM11.1404 17.7237C11.0629 17.757 10.997 17.8125 10.9511 17.8833C10.9052 17.954 10.8813 18.0368 10.8824 18.1211C10.8836 18.2054 10.9097 18.2875 10.9575 18.357C11.0053 18.4265 11.0726 18.4802 11.1509 18.5115C11.2293 18.5427 11.3151 18.55 11.3976 18.5324C11.4801 18.5148 11.5555 18.4732 11.6143 18.4128C11.6731 18.3523 11.7127 18.2758 11.728 18.1929C11.7434 18.11 11.7338 18.0244 11.7004 17.9469C11.6555 17.8432 11.5714 17.7615 11.4665 17.7197C11.3615 17.6779 11.2443 17.6793 11.1404 17.7237ZM10.2667 18.0702C9.86724 18.2145 9.51538 18.3275 9.10654 18.4409C9.00024 18.4731 8.91075 18.5456 8.85716 18.6429C8.80357 18.7402 8.79013 18.8546 8.81971 18.9616C8.84928 19.0687 8.91953 19.16 9.01547 19.216C9.1114 19.272 9.22542 19.2883 9.33319 19.2614C9.72011 19.154 10.1815 19.0065 10.5566 18.8707C10.6607 18.8307 10.7449 18.7515 10.7913 18.6501C10.8376 18.5486 10.8423 18.4331 10.8043 18.3282C10.7663 18.2234 10.6887 18.1376 10.5882 18.0894C10.4877 18.0411 10.3722 18.0343 10.2667 18.0702ZM13.6544 30.3478C13.7151 30.3793 13.7825 30.3958 13.8509 30.3958C13.9193 30.3958 13.9866 30.3793 14.0473 30.3478C16.3294 29.1751 20.4697 26.6395 20.4697 23.5519V17.6238C20.4697 17.5255 20.4357 17.4302 20.3734 17.3542C20.311 17.2782 20.2243 17.2261 20.1279 17.2068C19.0133 16.9854 17.928 16.6361 16.8935 16.1657C15.9037 15.7127 14.9742 15.1383 14.1262 14.4558C14.0506 14.393 13.9556 14.3583 13.8573 14.3575C13.759 14.3567 13.6635 14.3899 13.5868 14.4514C12.7372 15.1357 11.8057 15.7115 10.8139 16.1657C9.7906 16.6307 8.71752 16.9773 7.61552 17.1987C7.51069 17.21 7.41375 17.2597 7.34335 17.3381C7.27296 17.4166 7.23409 17.5184 7.23423 17.6238V23.5519C7.23423 26.6382 11.3724 29.1736 13.6544 30.3478ZM9.55138 26.4554C10.765 27.7138 12.4877 28.7741 13.852 29.4919C15.7788 28.4786 19.616 26.1386 19.616 23.5519V17.9682C17.5244 17.5197 15.5567 16.6174 13.852 15.3251C12.1473 16.6174 10.1798 17.5197 8.08821 17.9682V23.5529C8.08821 24.5718 8.68832 25.5617 9.55138 26.4563V26.4554ZM13.6685 32.0439C13.7258 32.0713 13.7885 32.0855 13.852 32.0855C13.9155 32.0855 13.9782 32.0713 14.0354 32.0439C17.0112 30.6192 21.9833 27.6299 21.9833 23.5519V21.1925C24.6893 21.1497 27.377 20.7405 29.9731 19.976C30.0614 19.9506 30.1391 19.8971 30.1945 19.8237C30.2498 19.7504 30.2799 19.661 30.2802 19.5691C30.2802 17.7976 29.286 16.2039 27.6788 15.0594C24.6942 12.9338 20.0665 12.6677 16.6694 14.3575C15.7474 13.8397 14.9001 13.1989 14.1509 12.4527C14.0712 12.3733 13.9633 12.3288 13.8509 12.3288C13.7384 12.3288 13.6305 12.3733 13.5508 12.4527C12.5717 13.4278 11.4269 14.2211 10.17 14.7955C8.88011 15.373 7.50951 15.7499 6.10571 15.913C6.00006 15.9232 5.90198 15.9723 5.83061 16.0508C5.75925 16.1294 5.71971 16.2317 5.71973 16.3378V23.5519C5.71973 27.6331 10.6915 30.6176 13.6673 32.0439H13.6685ZM17.652 14.8487C18.9111 15.3963 20.2441 15.755 21.6079 15.913C21.7115 15.9254 21.807 15.9754 21.8762 16.0535C21.9454 16.1315 21.9836 16.2323 21.9836 16.3366V20.3429C24.4972 20.3002 26.9948 19.9335 29.4146 19.2516C29.3019 17.8965 28.472 16.6678 27.187 15.7524C24.6294 13.9299 20.6935 13.6109 17.652 14.8487ZM9.33319 28.3218C10.7169 29.4579 12.2345 30.4204 13.852 31.188C16.4862 29.9045 21.1293 27.1275 21.1293 23.5519V16.7104C18.4139 16.3678 15.8714 15.1919 13.852 13.3445C11.8327 15.1917 9.29045 16.3676 6.57527 16.7104V23.5519C6.57527 25.3914 7.80554 27.0139 9.33381 28.3218H9.33319ZM18.4944 5.196C19.1063 4.58411 19.886 4.16741 20.7347 3.99861C21.5834 3.8298 22.4632 3.91646 23.2627 4.24763C24.0621 4.5788 24.7455 5.13961 25.2262 5.85914C25.707 6.57867 25.9636 7.4246 25.9636 8.28996C25.9636 9.15533 25.707 10.0013 25.2262 10.7208C24.7455 11.4403 24.0621 12.0011 23.2627 12.3323C22.4632 12.6635 21.5834 12.7501 20.7347 12.5813C19.886 12.4125 19.1063 11.9958 18.4944 11.3839C18.088 10.9777 17.7657 10.4953 17.5458 9.96444C17.3259 9.43357 17.2127 8.86458 17.2127 8.28996C17.2127 7.71534 17.3259 7.14635 17.5458 6.61549C17.7657 6.08462 18.088 5.60227 18.4944 5.196Z" fill="#218CAC"/>
</svg>
